<svg xmlns="http://www.w3.org/2000/svg" viewBox="0 0 74.3 74.3"><defs><style>.cls-1{fill:#f4f6fc;stroke:#8b989e;stroke-miterlimit:10;stroke-width:0.99px;}.cls-2{fill:#63757f;}</style></defs><title>Asset 33</title><g id="Layer_2" data-name="Layer 2"><g id="Layer_1-2" data-name="Layer 1"><circle class="cls-1" cx="37.2" cy="37.2" r="36.7"/><path class="cls-2" d="M45.5,40.7v6.1H21.9V39.7a1.2,1.2,0,0,1,1.2-1.2h6.4a6.9,6.9,0,0,1,1.3-1.1L33,36.1H23.1a3.6,3.6,0,0,0-3.6,3.6V51.5A3.6,3.6,0,0,0,23.1,55H44.3a3.5,3.5,0,0,0,3.5-3.5V39.7h0l-.3.2Zm3.9-19.8a15.3,15.3,0,0,0-2.9,1.4C39.9,25.8,32,25.2,30.3,28s-3.1,5.4-3.5,7h5.6a11.1,11.1,0,0,0,1.7-2.5,22.1,22.1,0,0,0,3.3-.5l1.3,1.2a6.5,6.5,0,0,1-2.6,2.6,40.8,40.8,0,0,0-4.5,2.4A7,7,0,0,0,29,41.3c-.3.9,0,3.9,4.1,2.9l2.6-.8a36.7,36.7,0,0,0,4.8-2.9c1.2-.4,3.8-.4,6.6-1.9A5.5,5.5,0,0,0,49.5,36c2.4-5,4.5-4.6,5.1-5.5S51.8,20.2,49.4,20.9ZM45.5,51.5a1.3,1.3,0,0,1-1.2,1.2H23.1a1.2,1.2,0,0,1-1.2-1.2V50.3H45.5Z"/></g></g></svg>