<svg xmlns="http://www.w3.org/2000/svg" viewBox="0 0 72.8 72.8"><defs><style>.cls-1{fill:#f4f6fc;stroke:#8b989e;stroke-miterlimit:10;stroke-width:0.99px;}.cls-2{fill:#63757f;}</style></defs><title>Asset 29</title><g id="Layer_2" data-name="Layer 2"><g id="Layer_1-2" data-name="Layer 1"><circle class="cls-1" cx="36.4" cy="36.4" r="35.9"/><path class="cls-2" d="M35.3,31.4a3.3,3.3,0,0,1,1.5-.4,4.4,4.4,0,0,1,2.9.9l.9.8L43,28.8l-1-.5a11.5,11.5,0,0,0-3.2-1.2V24.2H34.5v3a6.7,6.7,0,0,0-2.7,1.6,5.2,5.2,0,0,0-1.3,3.6c0,2.3,1.8,4.2,5.5,5.8.9.4,2.4,1.1,2.4,2.1a1.1,1.1,0,0,1-.5,1,3,3,0,0,1-1.8.5,5.2,5.2,0,0,1-3.3-1.1l-1-.8-2.1,3.7.7.6a8.6,8.6,0,0,0,3.8,1.6v2.8h4.3v-3a5.8,5.8,0,0,0,2.9-1.8,5.4,5.4,0,0,0,1.4-3.6,4.8,4.8,0,0,0-1.3-3.5,10.5,10.5,0,0,0-3.9-2.5c-2.7-1.2-2.7-2-2.7-2A.8.8,0,0,1,35.3,31.4Z"/><path class="cls-2" d="M24,24a17.5,17.5,0,0,1,24.7,0,17,17,0,0,1,4.6,8.1H51l4.2,5.6,4.2-5.6H56.9a21,21,0,0,0-41.4,1.5h3.6A16.8,16.8,0,0,1,24,24Z"/><path class="cls-2" d="M48.7,48.7a17.4,17.4,0,0,1-24.7.1,16.8,16.8,0,0,1-4.6-8.2h2.3L17.5,35l-4.2,5.6h2.5a20.9,20.9,0,0,0,41.3-1.5H53.6A17.4,17.4,0,0,1,48.7,48.7Z"/></g></g></svg>