<svg xmlns="http://www.w3.org/2000/svg" viewBox="0 0 74.3 74.3"><defs><style>.cls-1{fill:#f4f6fc;stroke:#8b989e;stroke-miterlimit:10;stroke-width:0.99px;}.cls-2{fill:#63757f;}</style></defs><title>Asset 32</title><g id="Layer_2" data-name="Layer 2"><g id="Layer_1-2" data-name="Layer 1"><circle class="cls-1" cx="37.2" cy="37.2" r="36.7"/><rect class="cls-2" x="40.4" y="26.4" width="2.6" height="7.91" transform="translate(-0.3 0.4) rotate(-0.6)"/><polygon class="cls-2" points="40.2 45.2 20.9 45.4 20.7 26.7 23.3 26.6 23.5 42.8 40.2 42.6 40.2 45.2"/><path class="cls-2" d="M37.1,38.7c1.2,2.3,4.5,2.8,5.6,3.2s1.9.7,1.9,1.5S43,47.1,43,47.1H30.3l6.2,6a8,8,0,0,0,5.3,1.9L60,54.9V45.5s-3.9-4.1-6.1-6-11-2.9-12.8-3.6C36.7,34.5,36.1,36.6,37.1,38.7Z"/><path class="cls-2" d="M25.1,26.4V27c0,3.1,3.1,5.5,6.8,5.5s6.7-2.6,6.7-5.6v-.6Z"/><path class="cls-2" d="M22.2,44.1h7.2a7.1,7.1,0,0,0-7.3-7.1Z"/><path class="cls-2" d="M32.3,34.3a2.1,2.1,0,0,1,2.1,2.1,2,2,0,0,1-2.1,2,1.9,1.9,0,0,1-2-2A2,2,0,0,1,32.3,34.3Z"/><path class="cls-2" d="M49.6,29a3.1,3.1,0,0,1-2.9,3H43.1a1.3,1.3,0,0,1,0-2.6H47v-6l-30.1.3v6h4.6a1.2,1.2,0,0,1,1.3,1.2,1.3,1.3,0,0,1-1.3,1.3H17.3a2.9,2.9,0,0,1-2.9-2.9V24.1a3,3,0,0,1,2.9-3l29.4-.3a2.9,2.9,0,0,1,2.9,2.9Z"/></g></g></svg>